<?xml version="1.0" encoding="utf-8"?>
<!-- Generator: Adobe Illustrator 26.0.1, SVG Export Plug-In . SVG Version: 6.00 Build 0)  -->
<svg version="1.1" id="Layer_1" xmlns="http://www.w3.org/2000/svg" xmlns:xlink="http://www.w3.org/1999/xlink" x="0px" y="0px"
	 viewBox="0 0 1920 1080" style="enable-background:new 0 0 1920 1080;" xml:space="preserve">
<style type="text/css">
	.st0{fill:none;}
	.st1{fill:#45459A;}
	.st2{fill:#00C4B2;}
	.st3{fill:#A6A4D8;}
	.st4{fill:#F76A55;}
	.st5{fill:#080638;}
	.st6{fill:#FFFFFF;stroke:#D7D7FA;stroke-miterlimit:10;}
	.st7{fill:#D7D7FA;}
	.st8{fill:#FF9ABD;}
	.st9{fill:#FFC500;}
	.st10{fill:url(#SVGID_1_);}
	.st11{fill:url(#SVGID_00000136394712685101348710000010231879889883233958_);}
	.st12{fill:url(#SVGID_00000026849252906712355560000012754278308092427166_);}
	.st13{fill:url(#SVGID_00000168115556565102605720000000276732385313674660_);}
	.st14{fill:url(#SVGID_00000028325389428517458540000015067631780512751294_);}
	.st15{fill:url(#SVGID_00000180360010540574332860000008782198836422793919_);}
	.st16{fill:url(#SVGID_00000168109729198467558150000000299509116916441480_);}
	.st17{fill:url(#SVGID_00000062165436133810386550000003757183386653912505_);}
	.st18{fill:url(#SVGID_00000024708700969859590770000007722405165490663059_);}
	.st19{fill:#FF9480;}
	.st20{fill:url(#SVGID_00000176012188440737550430000002239582648506731928_);}
	.st21{fill:#FFFFFF;}
	.st22{fill:url(#SVGID_00000136378406509690513680000017403505516884431257_);}
	.st23{fill:url(#SVGID_00000101789032109946647010000009242463706545628075_);}
	.st24{fill:url(#SVGID_00000030478885571522197960000000363075240123939728_);}
	.st25{fill:url(#SVGID_00000152967231630003875180000001013299815493603973_);}
	.st26{fill:url(#SVGID_00000081638360765688535690000000493018494967561661_);}
	.st27{fill:url(#SVGID_00000140714364948313206610000005712727103717109645_);}
	.st28{fill:url(#SVGID_00000056400717087384306270000004915110203743431351_);}
	.st29{fill:url(#SVGID_00000056413851848668579830000013585671530758396576_);}
	.st30{fill:url(#SVGID_00000138544054765045737810000000439927586523915434_);}
	.st31{fill:url(#SVGID_00000079472578423831533540000003451797605056817814_);}
	.st32{fill:url(#SVGID_00000157281852845597997860000013953315877570115460_);}
	.st33{fill:none;stroke:#FFA89E;stroke-width:0;stroke-linecap:round;stroke-linejoin:round;}
	.st34{fill:#FF9CBF;}
	.st35{fill:url(#SVGID_00000126301824764974908330000009061583717412417197_);}
	.st36{fill:url(#SVGID_00000116948320391702432830000016939409209543365526_);}
	.st37{fill:url(#SVGID_00000014634523687343048500000005873406531192126604_);}
	.st38{fill:url(#SVGID_00000096765788196284540640000000289141056833518003_);}
</style>
<pattern  width="35.33" height="35.33" patternUnits="userSpaceOnUse" id="Nueva_muestra_de_motivo_10" viewBox="0 -35.33 35.33 35.33" style="overflow:visible;">
	<g>
		<rect y="-35.33" class="st0" width="35.33" height="35.33"/>
		<rect x="0" y="-35.33" class="st1" width="35.33" height="35.33"/>
	</g>
</pattern>
<pattern  width="32.57" height="32.57" patternUnits="userSpaceOnUse" id="Nueva_muestra_de_motivo_16" viewBox="0 -32.57 32.57 32.57" style="overflow:visible;">
	<g>
		<rect x="0" y="-32.57" class="st0" width="32.57" height="32.57"/>
		<rect x="0" y="-32.57" class="st2" width="32.57" height="32.57"/>
	</g>
</pattern>
<pattern  width="35.33" height="35.33" patternUnits="userSpaceOnUse" id="Nueva_muestra_de_motivo_9" viewBox="0 -35.33 35.33 35.33" style="overflow:visible;">
	<g>
		<rect y="-35.33" class="st0" width="35.33" height="35.33"/>
		<rect x="0" y="-35.33" class="st3" width="35.33" height="35.33"/>
	</g>
</pattern>
<g>
	<g>
		<polygon class="st4" points="878.1,737.94 862.99,737.94 859.14,595.74 858.54,573.5 852.53,351.86 858.54,352.45 869.75,573.5 
			870.89,595.74 		"/>
		<polygon class="st5" points="870.89,595.74 859.14,595.74 858.54,573.5 869.75,573.5 		"/>
	</g>
	<g>
		<polygon class="st4" points="972.78,737.94 955.26,737.94 931.26,595.74 927.51,573.5 890.75,355.65 896.86,356.26 940.07,573.5 
			944.5,595.74 		"/>
		<polygon class="st5" points="944.5,595.74 931.26,595.74 927.51,573.5 940.07,573.5 		"/>
	</g>
	<polygon class="st4" points="907.51,580.03 893.22,580.03 869.59,328.05 874.69,328.56 	"/>
</g>
<polyline class="st4" points="769.84,737.94 833.56,515.91 854.13,438.91 854.13,469.12 835.06,547.76 783.63,737.94 "/>
<polygon class="st5" points="854.13,438.91 854.13,469.12 835.06,547.76 833.56,515.91 "/>
<g>
	<polygon class="st6" points="848.2,569.47 953.01,569.47 914.08,388.38 841.63,381.2 	"/>
	<polygon class="st7" points="841.1,380.7 836.92,387.93 842.78,569.47 848.2,569.47 	"/>
	<rect x="838.22" y="568.83" class="st4" width="119.39" height="6.81"/>
	<g>
		
			<ellipse transform="matrix(0.7071 -0.7071 0.7071 0.7071 -121.6713 776.4365)" class="st8" cx="876.41" cy="535.09" rx="15.16" ry="15.16"/>
		<polygon class="st9" points="857.48,456.27 884.02,406.44 924.26,488.39 		"/>
		<g>
			<g>
				<g>
					<path class="st7" d="M898.64,502.95c0.01,0.16-0.12,0.3-0.28,0.3c-0.15,0.01-0.31-0.06-0.41-0.17
						c-0.11-0.12-0.11-0.28-0.14-0.43l-0.08-0.45l-0.33-1.79l-0.67-3.58l-1.33-7.17l0,0.01l-0.33-0.58l0.01,0.01
						c-4.51-2.71-8.87-5.96-11.86-10.38c-3.03-4.37-5.01-9.33-7.59-13.93l-0.24-0.43c-0.07-0.16-0.19-0.24-0.23-0.53
						c0-0.09,0.06-0.21,0.16-0.25c0.08-0.03,0.15-0.04,0.2-0.03c0.11,0.01,0.2,0.03,0.29,0.07c0.17,0.06,0.34,0.16,0.47,0.25
						l1.68,1.07l1.64,1.14l1.59,1.2c2.09,1.65,4.02,3.5,5.72,5.54c3.45,4.08,5.96,8.83,8.22,13.61l-0.67,0.23
						c-0.75-3.36-1.62-6.69-2.71-9.94c-1.08-3.25-2.4-6.42-3.93-9.5c-3.05-6.13-6.96-11.87-11.86-16.64l0.64,0.04
						c-0.65,0.43-1.27,0.37-1.8,0.32c-0.54-0.07-1.05-0.2-1.55-0.35c-0.48-0.15-1-0.37-1.41-0.51c-0.43-0.14-0.89-0.23-1.35-0.27
						l0.26-0.05c-0.91,0.48-1.54,1.58-2.15,2.63c-0.31,0.54-0.62,1.09-1.01,1.63c-0.37,0.53-0.9,1.08-1.59,1.37
						c-0.69,0.32-1.61,0.22-2.22-0.21c-0.62-0.43-1.03-0.95-1.37-1.56c-0.69-1.23-0.63-2.76-0.16-3.99l0.34,0.61
						c-0.21-0.04-0.45-0.12-0.66-0.34c-0.12-0.13-0.16-0.22-0.2-0.29c-0.05-0.08-0.09-0.17-0.13-0.26
						c-0.15-0.36-0.21-0.79-0.13-1.19l0.66,0.48c-0.46,0.25-0.95,0.45-1.46,0.59c-0.52,0.15-1.14,0.19-1.71-0.01
						c-0.58-0.19-1.06-0.62-1.35-1.11c-0.29-0.5-0.44-1-0.54-1.55c-0.2-1.11,0.27-2.3,1.05-3.05c0.77-0.77,1.73-1.23,2.69-1.58
						l-0.13,0.73c-0.43-0.35-0.83-0.84-0.99-1.45c-0.08-0.3-0.11-0.62-0.02-0.97c0.09-0.35,0.36-0.66,0.64-0.82l-0.03,0.68
						c-0.44-0.33-0.86-0.68-1.25-1.09c-0.37-0.42-0.79-0.88-0.87-1.62c-0.03-0.37,0.15-0.77,0.39-1c0.23-0.25,0.54-0.38,0.83-0.52
						c0.61-0.17,1.21-0.14,1.76-0.04c2.2,0.46,4.06,1.58,5.89,2.67c1.81,1.13,3.58,2.33,5.21,3.73c1.6,1.41,3.15,3.01,3.97,5.06
						l-0.01-0.03c0.2,0.37,0.38,0.76,0.5,1.17c0.12,0.41,0.2,0.84,0.14,1.31l-0.08-0.21c3.64,3.36,6.84,7.19,9.53,11.33
						c2.7,4.14,4.9,8.6,6.67,13.2C896.53,483.26,898.3,493.1,898.64,502.95z M898.64,502.95c-0.38-9.85-2.21-19.68-5.78-28.87
						c-3.57-9.17-9.07-17.66-16.39-24.23l-0.09-0.08l0.01-0.13c0.08-0.71-0.23-1.49-0.6-2.16l-0.01-0.01l-0.01-0.02
						c-0.79-1.9-2.3-3.45-3.88-4.8c-1.6-1.35-3.38-2.51-5.18-3.61c-1.8-1.05-3.69-2.13-5.67-2.51c-0.49-0.09-0.98-0.09-1.39,0.03
						c-0.38,0.15-0.73,0.45-0.68,0.76c0.02,0.34,0.32,0.76,0.66,1.1c0.35,0.35,0.75,0.68,1.16,0.98l0.48,0.35l-0.51,0.33
						c-0.15,0.1-0.24,0.21-0.28,0.35c-0.04,0.14-0.03,0.34,0.03,0.53c0.1,0.38,0.38,0.72,0.72,1.01l0.58,0.47l-0.71,0.25
						c-0.88,0.31-1.74,0.74-2.35,1.38c-0.63,0.62-0.94,1.46-0.8,2.31c0.15,0.86,0.56,1.73,1.3,1.95c0.72,0.25,1.66-0.11,2.46-0.53
						l0.84-0.44l-0.18,0.93c-0.04,0.22-0.01,0.44,0.08,0.67c0.03,0.06,0.05,0.11,0.08,0.17c0.04,0.07,0.07,0.12,0.06,0.1
						c0.01,0.01,0.08,0.05,0.18,0.07l0.53,0.09l-0.19,0.51c-0.4,1.08-0.42,2.27,0.12,3.23c0.26,0.47,0.65,0.94,1.06,1.22
						c0.42,0.28,0.88,0.32,1.34,0.12c0.93-0.39,1.51-1.55,2.13-2.6c0.63-1.05,1.22-2.29,2.55-3.03l0.11-0.06l0.15,0.01
						c0.53,0.05,1.06,0.14,1.57,0.31c0.53,0.19,0.93,0.36,1.4,0.5c0.46,0.14,0.92,0.27,1.36,0.32c0.44,0.06,0.89,0.02,1.09-0.12
						l0.34-0.25l0.3,0.29c4.97,4.89,8.91,10.74,11.96,16.96c1.52,3.12,2.86,6.33,3.92,9.63c1.06,3.3,1.89,6.67,2.61,10.05l0.66,3.13
						l-1.33-2.9c-2.2-4.79-4.62-9.51-7.98-13.58c-1.66-2.04-3.55-3.89-5.59-5.54l-1.56-1.21l-1.61-1.15l-1.66-1.08
						c-0.14-0.1-0.26-0.17-0.4-0.22c-0.07-0.02-0.14-0.04-0.19-0.05c-0.03,0-0.04,0-0.04,0c0.02,0,0.04-0.05,0.04-0.05
						c-0.01,0.04,0.11,0.23,0.18,0.36l0.24,0.44c2.54,4.65,4.44,9.63,7.43,14c2.95,4.41,7.28,7.67,11.78,10.41l0.01,0.01l0,0.01
						l0.33,0.59l0,0l0,0.01l1.3,7.18l0.65,3.59l0.33,1.79l0.08,0.45c0.03,0.15,0.03,0.31,0.14,0.43c0.1,0.11,0.25,0.18,0.4,0.17
						C898.52,503.25,898.65,503.11,898.64,502.95z"/>
				</g>
			</g>
		</g>
		<g>
			<g>
				<g>
					<path class="st7" d="M903.98,433.88c-0.01,0.51-0.14,1.06-0.54,1.41c-0.39,0.36-0.93,0.47-1.44,0.48
						c-1.05,0.01-2.03-0.4-2.98-0.79c-0.95-0.4-1.88-0.86-2.84-1.24c-0.96-0.37-1.96-0.71-3-0.66l0.01,0
						c-0.41,0.31-0.79,0.65-1.1,1.06c-0.29,0.42-0.57,0.85-0.9,1.25c-0.32,0.4-0.67,0.78-1.08,1.11c-0.4,0.32-0.89,0.57-1.42,0.58
						l0.04-0.02c-1.62,3.89-2.55,8.03-3.02,12.2c-0.47,4.18-0.47,8.4-0.13,12.59c0.68,8.39,2.73,16.61,5.34,24.58
						c1.33,3.99,2.87,7.9,4.3,11.87c0.72,1.98,1.41,3.98,2.03,5.99c0.05,0.16,0.09,0.4-0.01,0.63c-0.1,0.24-0.33,0.4-0.55,0.44
						c-0.44,0.1-0.85-0.13-1.06-0.46c-0.28-0.55-0.46-0.98-0.7-1.47c-0.44-0.96-0.87-1.93-1.28-2.9c-1.66-3.88-3.11-7.85-4.44-11.85
						c-0.67-2-1.31-4.01-1.93-6.02l-1.76-6.09l0.16,0.25c-4.04-3.23-7.79-6.95-10.6-11.37c-2.83-4.4-4.67-9.33-6.08-14.31
						l-0.51-1.87c-0.03-0.19-0.14-0.37,0.01-0.8c0.06-0.11,0.17-0.24,0.32-0.3c0.15-0.06,0.28-0.06,0.37-0.04
						c0.19,0.04,0.3,0.1,0.4,0.17c0.33,0.25,0.52,0.43,0.79,0.65c1.01,0.83,1.96,1.71,2.89,2.63c1.85,1.83,3.53,3.84,5.02,5.97
						c1.49,2.13,2.8,4.38,3.97,6.69c1.16,2.32,2.19,4.69,3.23,7.05l-0.72,0.21c-0.6-2.86-1.07-5.82-1.29-8.77
						c-0.23-2.95-0.25-5.93-0.05-8.88c0.18-2.96,0.7-5.89,1.39-8.77c0.69-2.89,1.78-5.65,3-8.35l0.06,0.23
						c-0.45-0.34-0.76-0.79-1.02-1.25c-0.25-0.47-0.43-0.97-0.56-1.48l0.01,0.02c-0.86-2.15-0.83-4.5-0.48-6.72
						c0.37-2.24,1.07-4.39,1.87-6.49c0.41-1.05,0.87-2.08,1.42-3.07c0.56-0.98,1.2-1.94,2.11-2.64c0.47-0.31,1-0.61,1.59-0.58
						c0.57-0.04,1.18,0.17,1.55,0.64c0.36,0.48,0.42,1.08,0.41,1.64c-0.02,0.57-0.12,1.13-0.26,1.67l-0.05-0.07
						c0.31,0,0.62,0.08,0.88,0.25c0.26,0.17,0.47,0.41,0.63,0.67c0.33,0.52,0.42,1.17,0.29,1.76l-0.05-0.06
						c1.16-0.2,2.35-0.25,3.51-0.01c1.15,0.22,2.26,0.8,3.01,1.71c0.38,0.45,0.65,0.98,0.87,1.53c0.2,0.54,0.26,1.2-0.06,1.72
						c-0.31,0.52-0.89,0.79-1.45,0.93c-0.57,0.15-1.16,0.21-1.74,0.22l0.01-0.03c0.28,0.24,0.51,0.53,0.65,0.87
						c0.07,0.17,0.13,0.34,0.15,0.53c0.02,0.19-0.08,0.37-0.21,0.49l0-0.02c0.82,0.52,1.58,1.15,2.16,1.94
						C903.66,431.93,904,432.9,903.98,433.88z M903.98,433.88c0.02-0.98-0.32-1.94-0.9-2.72c-0.57-0.79-1.34-1.42-2.16-1.93
						l-0.01-0.01l0.01-0.01c0.13-0.12,0.22-0.3,0.2-0.47c-0.03-0.18-0.08-0.35-0.15-0.52c-0.14-0.33-0.37-0.62-0.65-0.85l-0.03-0.03
						l0.05,0c0.58-0.01,1.17-0.07,1.73-0.22c0.56-0.14,1.12-0.41,1.42-0.92c0.31-0.5,0.25-1.14,0.05-1.67
						c-0.22-0.54-0.48-1.06-0.86-1.51c-0.75-0.89-1.84-1.46-2.98-1.67c-1.14-0.23-2.33-0.18-3.47,0.02l-0.07,0.01l0.01-0.07
						c0.12-0.58,0.03-1.2-0.29-1.69c-0.3-0.51-0.83-0.88-1.42-0.86l-0.07,0l0.02-0.07c0.13-0.54,0.23-1.1,0.25-1.65
						c0.01-0.55-0.06-1.13-0.39-1.56c-0.33-0.43-0.91-0.62-1.45-0.58c-0.55-0.02-1.06,0.26-1.51,0.56c-0.88,0.68-1.51,1.63-2.06,2.6
						c-0.54,0.98-0.98,2.01-1.38,3.06c-0.77,2.1-1.45,4.25-1.79,6.46c-0.32,2.2-0.32,4.51,0.54,6.56l0,0.01l0,0.01
						c0.13,0.48,0.31,0.96,0.55,1.39c0.24,0.43,0.54,0.84,0.92,1.12l0.12,0.09l-0.06,0.14c-1.18,2.69-2.23,5.44-2.88,8.3
						c-0.66,2.86-1.13,5.76-1.28,8.69c-0.17,2.93-0.12,5.87,0.15,8.79c0.26,2.93,0.74,5.8,1.38,8.7l0.79,3.57l-1.5-3.35
						c-2.11-4.7-4.26-9.38-7.23-13.54c-1.47-2.08-3.13-4.04-4.94-5.83c-0.91-0.89-1.85-1.76-2.84-2.56
						c-0.23-0.19-0.52-0.44-0.7-0.58c-0.04-0.03-0.07-0.03-0.04-0.03c0.01,0.03,0.27-0.05,0.29-0.16c0.03-0.12,0,0.03,0.05,0.15
						l0.51,1.85c1.41,4.92,3.26,9.74,6.01,14.03c2.72,4.31,6.37,7.97,10.35,11.18l0.12,0.09l0.04,0.15
						c2.2,8.08,4.8,16.13,7.95,23.89c0.4,0.97,0.82,1.93,1.24,2.89l0.63,1.39c0.07,0.11,0.2,0.17,0.29,0.15
						c0.06-0.04,0.06,0.03,0.03-0.16c-0.6-2.01-1.27-4-1.96-5.99c-1.39-3.97-2.89-7.91-4.17-11.93c-2.53-8.04-4.5-16.3-5.09-24.73
						c-0.29-4.21-0.25-8.44,0.23-12.63c0.49-4.18,1.44-8.33,3.08-12.22l0.01-0.02l0.03,0c0.5-0.01,0.98-0.25,1.38-0.56
						c0.4-0.32,0.75-0.69,1.07-1.09c0.33-0.4,0.6-0.83,0.9-1.25c0.31-0.41,0.7-0.76,1.12-1.07l0.01,0l0.01,0
						c1.05-0.05,2.06,0.3,3.01,0.68c0.96,0.38,1.89,0.84,2.84,1.25c0.95,0.39,1.93,0.8,2.97,0.8c0.51,0,1.05-0.11,1.44-0.47
						C903.83,434.93,903.97,434.38,903.98,433.88z"/>
				</g>
			</g>
		</g>
		<g>
			<g>
				<g>
					<path class="st7" d="M920.12,444.08c-0.03,0.39-0.16,0.79-0.45,1.07c-0.28,0.29-0.7,0.39-1.09,0.4
						c-0.8-0.01-1.56-0.27-2.29-0.57l0.02-0.02c0.15,0.27,0.23,0.57,0.22,0.88c-0.01,0.15-0.03,0.3-0.08,0.45
						c-0.07,0.15-0.23,0.21-0.37,0.26l0.01-0.02c0.77,1.05,1.39,2.38,1.09,3.73c-0.17,0.63-0.48,1.32-1.13,1.58
						c-0.65,0.25-1.36,0.01-1.93-0.3c-1.17-0.68-2.03-1.73-2.95-2.67c-0.92-0.94-1.86-1.94-3.08-2.44l0.03,0
						c-0.46,0.06-0.92,0.17-1.35,0.35c-0.42,0.2-0.85,0.42-1.29,0.59c-0.44,0.17-0.9,0.31-1.37,0.38c-0.47,0.07-0.98,0.05-1.42-0.18
						l0.09-0.02c-1.71,2.66-3.04,5.56-4.01,8.57c-0.98,3.01-1.62,6.12-2.01,9.26c-0.38,3.14-0.53,6.3-0.41,9.46
						c0.11,3.16,0.44,6.31,0.86,9.44l-0.6,0c0.51-4.65,1.23-9.38,3.19-13.74c0.98-2.17,2.25-4.21,3.8-6.01
						c0.4-0.44,0.79-0.89,1.2-1.32l1.27-1.25l1.33-1.18c0.14-0.12,0.31-0.23,0.53-0.3c0.11-0.03,0.24-0.07,0.46-0.03
						c0.24,0.02,0.48,0.36,0.46,0.53c0.01,0.36-0.05,0.42-0.07,0.58l-0.09,0.43c-0.9,4.55-1.09,9.29-2.5,13.87
						c-0.68,2.29-1.85,4.47-3.33,6.34c-1.48,1.89-3.25,3.5-5.07,4.99l0.17-0.28l-0.14,0.6l0.01-0.18l1.4,8.68l0.7,4.34
						c0.01,0.11,0.03,0.13,0.04,0.32c0.02,0.21-0.09,0.47-0.26,0.6c-0.33,0.27-0.75,0.26-1.08,0.02c-0.16-0.11-0.26-0.32-0.3-0.45
						l-0.08-0.26l-0.15-0.53l-0.62-2.12c-1.61-5.66-2.67-11.48-3.16-17.35c-0.5-5.86-0.27-11.81,0.89-17.58
						c1.11-5.78,3.47-11.33,6.88-16.12l-0.01,0.13c-0.36-0.78-0.33-1.65-0.17-2.44l0,0.02c0.15-2.25,1.45-4.19,2.88-5.81
						c1.47-1.61,3.12-3.06,4.91-4.31c0.9-0.61,1.86-1.16,2.92-1.48c1.02-0.34,2.32-0.26,3.07,0.61c0.38,0.45,0.3,1.1,0.05,1.58
						c-0.24,0.5-0.6,0.92-0.97,1.32c-0.76,0.79-1.63,1.46-2.49,2.12l-0.02-0.05c1.77,0.07,3.54,0.48,5.11,1.31
						c0.78,0.41,1.51,0.96,2.03,1.68C919.93,442.3,920.18,443.2,920.12,444.08z M920.12,444.08c0.06-0.88-0.2-1.78-0.73-2.49
						c-0.53-0.71-1.26-1.25-2.04-1.66c-1.57-0.82-3.34-1.22-5.1-1.28l-0.07,0l0.06-0.05c0.86-0.66,1.72-1.34,2.47-2.12
						c0.36-0.4,0.71-0.82,0.95-1.31c0.24-0.47,0.31-1.08-0.05-1.5c-0.72-0.83-1.98-0.9-2.98-0.57c-1.04,0.31-1.99,0.87-2.88,1.48
						c-1.77,1.25-3.41,2.71-4.87,4.32c-1.41,1.61-2.65,3.55-2.76,5.72l0,0.01l0,0.01c-0.15,0.76-0.15,1.6,0.18,2.28l0.03,0.07
						l-0.04,0.06c-3.32,4.8-5.59,10.32-6.61,16.06c-1.07,5.74-1.23,11.62-0.66,17.43c0.56,5.81,1.69,11.56,3.3,17.17l0.62,2.1
						l0.16,0.52l0.08,0.26c0.02,0.05,0,0.01-0.01,0.01c-0.04-0.01,0-0.02-0.06,0.01c-0.03,0.02-0.06,0.09-0.05,0.12l-0.04-0.22
						l-0.72-4.34l-1.44-8.68l-0.01-0.09l0.02-0.09l0.13-0.59l0.04-0.17l0.13-0.11c3.58-2.92,6.81-6.43,8.1-10.87
						c1.38-4.4,1.6-9.12,2.54-13.75l0.15-0.72c-0.02,0.02,0.11,0.22,0.2,0.22c0.07,0.01,0.05,0,0.03,0.01
						c-0.06,0.02-0.15,0.07-0.23,0.14l-1.31,1.14l-1.24,1.21c-0.4,0.42-0.78,0.85-1.17,1.28c-1.51,1.74-2.77,3.69-3.74,5.79
						c-1.96,4.2-2.73,8.86-3.3,13.48l-0.3,2.42l-0.3-2.42c-0.39-3.15-0.68-6.32-0.75-9.51c-0.08-3.18,0.11-6.37,0.53-9.52
						c0.43-3.15,1.11-6.27,2.14-9.28c1-3.02,2.39-5.91,4.11-8.57l0.03-0.05l0.06,0.03c0.4,0.21,0.88,0.24,1.34,0.17
						c0.46-0.07,0.91-0.2,1.35-0.37c0.44-0.17,0.85-0.38,1.29-0.58c0.44-0.18,0.91-0.29,1.38-0.35l0.02,0l0.01,0.01
						c1.26,0.52,2.19,1.54,3.11,2.48c0.92,0.95,1.78,2,2.92,2.67c0.57,0.31,1.25,0.54,1.88,0.3c0.62-0.25,0.94-0.92,1.11-1.54
						c0.3-1.32-0.3-2.64-1.07-3.69l-0.01-0.02l0.02-0.01c0.14-0.04,0.29-0.11,0.36-0.24c0.05-0.14,0.07-0.29,0.08-0.44
						c0.01-0.3-0.07-0.6-0.21-0.87l-0.02-0.03l0.03,0.01c0.73,0.3,1.49,0.57,2.28,0.58c0.39-0.01,0.8-0.11,1.09-0.39
						C919.96,444.88,920.08,444.47,920.12,444.08z"/>
				</g>
				<g>
					<path class="st7" d="M915.18,439.07c-1.02-0.01-1.99-0.05-2.94,0l-1.22,0.06l0.96-0.85c0.82-0.72,1.65-1.37,2.42-2.07
						l0.25-0.22l0.26,0.13c0.28,0.14,0.54,0.35,0.72,0.63c0.18,0.27,0.27,0.59,0.27,0.88C915.94,438.22,915.61,438.79,915.18,439.07
						z M915.18,439.07c0.23-0.48,0.27-0.95,0.13-1.35c-0.14-0.42-0.41-0.66-0.77-0.79l0.51-0.1c-0.74,0.86-1.62,1.55-2.53,2.15
						l-0.26-0.79C913.29,438.28,914.29,438.55,915.18,439.07z"/>
				</g>
			</g>
		</g>
		<g>
			
				<pattern  id="SVGID_1_" xlink:href="#Nueva_muestra_de_motivo_16" patternTransform="matrix(-0.9237 0 0.1427 0.9237 -12923.7041 -518.9739)">
			</pattern>
			<path class="st10" d="M903.05,445.61c-12.5,14.42-11.53,36.72-5.4,56.25c0.15,0.44,0.82,0.32,0.75-0.09
				c-0.69-4.45-1.5-8.85-2.17-13.25c0.05-0.2,0.09-0.39,0.14-0.59c3.41-2.79,6.46-5.95,7.98-10.28c1.71-4.84,1.84-10.29,2.94-15.34
				c0.1-0.48-0.39-0.34-0.69-0.09c-7.94,6.61-9.69,13.71-10.8,23.21c-0.64-4.93-1.03-9.86-0.73-14.79
				c0.54-9.01,2.99-17.95,8.43-24.64C903.7,445.75,903.27,445.36,903.05,445.61z"/>
			<g>
				
					<pattern  id="SVGID_00000003084552071702632300000010226400408421822637_" xlink:href="#Nueva_muestra_de_motivo_10" patternTransform="matrix(-0.9237 0 0.1427 0.9237 -13002.6201 -541.3645)">
				</pattern>
				<path style="fill:url(#SVGID_00000003084552071702632300000010226400408421822637_);" d="M906.08,447.29
					c2.55,0.09,4.76,4.13,6.92,5.32c1.14,0.63,2.15,0.59,2.73-0.44c1.53-2.73-1.67-6.1-4.48-7.98c1.92,0.74,3.62,2.05,5.62,2.42
					c1.21,0.22,2.06-0.22,2.15-1.42c0.28-3.72-4.64-5.38-7.86-5.46c1.39-1.08,5.38-4.01,2.8-5.46c-2.62-1.45-7.2,2.75-8.69,4.13
					c-2.19,2.03-4.71,5.07-4.33,8.25C901.36,450.35,904.25,448.07,906.08,447.29z"/>
				
					<pattern  id="SVGID_00000025434237972805338750000009977918423219866535_" xlink:href="#Nueva_muestra_de_motivo_9" patternTransform="matrix(-0.9237 0 0.1427 0.9237 -12983.792 -541.3645)">
				</pattern>
				<path style="fill:url(#SVGID_00000025434237972805338750000009977918423219866535_);" d="M905.44,447.92
					c3.01-1.47,9.56,0.65,9.9-0.58c0.69-2.49-4.55-4.21-7.28-4.54c2.37-0.67,6.94-1.74,6.43-4.12c-0.63-2.91-7.33-0.41-10.49,2.34
					c-3.98,3.46-3.44,6.81-2.59,7.48C902.57,449.42,904.94,448.16,905.44,447.92z"/>
			</g>
		</g>
		<g>
			
				<pattern  id="SVGID_00000065071325115834872500000008291478955172093116_" xlink:href="#Nueva_muestra_de_motivo_16" patternTransform="matrix(0.9176 -0.0351 0.1777 0.9231 764.8905 -678.4552)">
			</pattern>
			<path style="fill:url(#SVGID_00000065071325115834872500000008291478955172093116_);" d="M873.82,446.18
				c17.4,13.85,24.15,36.04,24.82,55.67c0.01,0.45-0.7,0.35-0.78-0.06c-0.86-4.44-1.57-8.85-2.43-13.24
				c-0.12-0.2-0.22-0.38-0.34-0.58c-4.35-2.65-8.47-5.67-11.48-9.91c-3.37-4.74-5.38-10.15-8.22-15.13
				c-0.27-0.48,0.27-0.35,0.66-0.12c10.17,6.26,14.37,13.26,18.75,22.65c-1.07-4.92-2.39-9.84-4.39-14.72
				c-3.66-8.93-9.18-17.72-16.9-24.16C873.22,446.33,873.51,445.93,873.82,446.18z"/>
			<g>
				
					<pattern  id="SVGID_00000155108415922073916930000013775947233838669495_" xlink:href="#Nueva_muestra_de_motivo_10" patternTransform="matrix(0.9176 -0.0351 0.1777 0.9231 727.9088 -679.5735)">
				</pattern>
				<path style="fill:url(#SVGID_00000155108415922073916930000013775947233838669495_);" d="M871.39,447.96
					c-2.5,0.18-3.3,4.29-5.03,5.54c-0.92,0.67-1.93,0.67-2.86-0.33c-2.47-2.65-0.45-6.12,1.69-8.1c-1.65,0.81-2.89,2.17-4.75,2.61
					c-1.13,0.26-2.12-0.14-2.63-1.33c-1.57-3.69,2.75-5.52,5.92-5.72c-1.75-1.02-6.74-3.78-4.67-5.32c2.1-1.54,8.1,2.46,10.06,3.77
					c2.88,1.93,6.43,4.86,7.15,8.03C877.14,450.82,873.48,448.66,871.39,447.96z"/>
				
					<pattern  id="SVGID_00000043443980584983395300000015490376752356103838_" xlink:href="#Nueva_muestra_de_motivo_9" patternTransform="matrix(0.9176 -0.0351 0.1777 0.9231 709.2049 -678.8575)">
				</pattern>
				<path style="fill:url(#SVGID_00000043443980584983395300000015490376752356103838_);" d="M872.24,448.56
					c-3.5-1.35-9.27,1.01-10.04-0.2c-1.55-2.45,3.06-4.35,5.67-4.79c-2.58-0.58-7.49-1.46-7.81-3.85
					c-0.38-2.92,7.14-0.68,11.23,1.93c5.16,3.29,5.77,6.63,5.16,7.33C875.61,449.94,872.82,448.78,872.24,448.56z"/>
			</g>
		</g>
		<g>
			
				<pattern  id="SVGID_00000087414451500858091090000005655554776082148031_" xlink:href="#Nueva_muestra_de_motivo_16" patternTransform="matrix(-0.9137 0.0547 0.1972 0.9221 -12485.0176 -37.7919)">
			</pattern>
			<path style="fill:url(#SVGID_00000087414451500858091090000005655554776082148031_);" d="M888.87,482.74
				c2.25,7.3,4.82,14.84,8.12,21.89c0.31,0.64,1.24,0.48,1.03-0.21c-2.04-6.75-4.89-13.37-6.94-20.11
				c-2.07-6.83-3.69-13.75-4.36-20.65c-1.11-11.37,0.11-23.46,6.15-32.36c0.13-0.21-0.26-0.51-0.4-0.31
				c-12.18,17.32-6.53,38.55-6.23,40.45c-3.21-7.17-6.65-15.39-15.73-22.69c-0.39-0.32-0.64-0.17-0.5,0.37
				c3.48,13.3,8.24,20.24,17.05,27.35C887.62,478.57,888.22,480.67,888.87,482.74z"/>
			<g>
				
					<pattern  id="SVGID_00000001651064281774427000000003079090838619440307_" xlink:href="#Nueva_muestra_de_motivo_10" patternTransform="matrix(-0.9137 0.0547 0.1972 0.9221 -12554.5752 -49.0823)">
				</pattern>
				<path style="fill:url(#SVGID_00000001651064281774427000000003079090838619440307_);" d="M893.32,433.29
					c2.49-1.19,6.7,2.22,9.38,2.45c1.42,0.13,2.37-0.43,2.39-1.86c0.07-3.82-4.75-5.96-8.42-6.65c2.22-0.14,4.53,0.46,6.64-0.13
					c1.27-0.37,1.86-1.28,1.33-2.67c-1.65-4.29-7.23-3.66-10.35-2.13c0.77-1.9,3.1-7.19-0.13-7.5c-3.26-0.3-5.49,6.69-6.21,8.98
					c-1.06,3.37-1.91,8.02,0.09,11.38C890.36,439.08,891.96,435.08,893.32,433.29z"/>
				
					<pattern  id="SVGID_00000047026795987683743080000014374612412276734395_" xlink:href="#Nueva_muestra_de_motivo_9" patternTransform="matrix(-0.9137 0.0547 0.1972 0.9221 -12535.9521 -50.198)">
				</pattern>
				<path style="fill:url(#SVGID_00000047026795987683743080000014374612412276734395_);" d="M893.03,434.31
					c2.13-3.16,9.51-4.09,9.2-5.63c-0.63-3.13-6.53-2.4-9.33-1.39c1.93-1.94,5.77-5.43,4.04-7.83c-2.1-2.93-7.24,3.23-8.86,7.89
					c-2.04,5.87,0.21,9.32,1.37,9.64C891.05,437.42,892.67,434.83,893.03,434.31z"/>
			</g>
		</g>
		<g>
			<path class="st7" d="M881.84,503.36c0.35,5.23,0.56,10.47,0.78,15.71l0.25,7.86c0.07,2.62,0.18,5.24,0.21,7.86l-0.49-0.47
				c4.47,0.05,8.94,0.02,13.41,0.12c4.47,0.07,8.94,0.17,13.41,0.36c-4.47,0.19-8.94,0.29-13.41,0.36
				c-4.47,0.11-8.94,0.08-13.41,0.12l-0.47,0l-0.02-0.48c-0.09-2.62-0.11-5.24-0.16-7.86l-0.13-7.86
				C881.77,513.85,881.74,508.61,881.84,503.36z"/>
		</g>
		<path class="st4" d="M909.22,534.8c0.21-0.48,0.27-1,0.17-1.56c-1.68-9.23-11.9-11.97-17.35-12.8c-5.4-0.8-9.85-4.86-10.14-14.43
			c-0.01-0.07-0.01-0.16-0.01-0.23l-0.49-21.03l25.05-0.06c0,0,14.48,45.67,15.99,50.11H909.22z"/>
		<g>
			<path class="st7" d="M881.4,484.76l12.94-0.77l12.94-0.69l0.27-0.01l0.08,0.27c2.63,8.49,5.13,17.03,7.7,25.54
				c2.56,8.51,5.01,17.06,7.52,25.59l0.17,0.56l-0.58,0l-18.21-0.15c-6.07-0.06-12.14-0.16-18.21-0.28
				c6.07-0.12,12.14-0.22,18.21-0.28l18.21-0.15l-0.42,0.56c-2.54-8.52-5.13-17.03-7.62-25.56c-2.48-8.54-5.03-17.06-7.45-25.61
				l0.35,0.25l-12.95,0.42L881.4,484.76z"/>
		</g>
	</g>
</g>
<g>
	<g>
		<g>
			<path class="st19" d="M1040.13,439.97c0.61,8.94-5.6,58.12-22.02,71.04c-13.48,10.61-52.89-2.88-63.36-4.48
				c-3.82-0.58-0.82-27.08,2.19-29.91c5.97,0.45,43.76,8.18,46.54,6.85c2.79-1.34,15.36-28.17,24.83-41.01
				C1033.93,434.84,1039.71,433.67,1040.13,439.97z"/>
			<path class="st19" d="M965.86,508.27c-1.01-0.29-9.91-1.62-16.65-2.48c-2.71-4.5-9.15-12.84-10.84-15.06
				c-1.47-2.79-6.19-7.91-6.43-7.72c-0.46,0.35-2.08,1.6-4.16,2.96c-2.76,1.79-6.32,3.79-9.09,4.19c-1.51,0.21-2.77-0.04-3.55-1.04
				c-1.4-1.8,2.42-5.04,6.62-9.26c5.7-5.76,13.02-12.53,17.37-12.17c6.43,0.52,13.95,6.67,16.4,8.24
				c2.46,1.57,11.72,3.86,11.72,3.86C973.18,494.32,967.21,508.65,965.86,508.27z"/>
			<g>
				<path class="st9" d="M902.82,507.27c0,0,8.65-9.19,17.19-19.11c8.54-9.91,31.19-27.43,32.23-27.11
					c1.04,0.33-18.06,22.42-27.59,31.12c-9.53,8.7-19.74,16.89-19.74,16.89L902.82,507.27z"/>
				<polygon class="st7" points="902.52,507.37 908.19,500.76 911.45,504.17 904.81,509.6 				"/>
				<g>
					<path class="st5" d="M902.52,507.37c-1.75,0.45-3.58,1.42-4.8,4.03c-1.47,3.16-3.68,3.77-3.68,3.77s8.29,1.15,10.77-5.57
						L902.52,507.37z"/>
					<path class="st19" d="M893.73,515.29c0.23-0.43,2.29-1.01,3.22-2.66c0.87-1.55,5.39,1.23,3.08,2.12
						C897.41,515.75,893.3,516.09,893.73,515.29z"/>
				</g>
			</g>
			<path class="st19" d="M949.21,505.78c-2.31-0.29-4.36-0.52-5.76-0.64c-5.51-0.47-8.43-2.52-11.15-5.12
				c-2.7-2.61-13.96-3.65-9.48-7.92c4.49-4.27,15.32,1.62,15.94,0.09c0.11-0.29-0.04-0.82-0.39-1.47
				C940.06,492.94,946.5,501.28,949.21,505.78z"/>
			<g>
				
					<pattern  id="SVGID_00000067204700101513368430000015953627790953765775_" xlink:href="#Nueva_muestra_de_motivo_10" patternTransform="matrix(1.0968 -0.1319 0.1319 1.0968 1579.5752 -337.2127)">
				</pattern>
				<path style="fill:url(#SVGID_00000067204700101513368430000015953627790953765775_);" d="M1040.86,445.97
					c-0.4,15.9-4.74,37.29-5.94,37.33c-0.45,0.02-4.05-1.53-8.42-3.51c-7.28-3.31-16.7-7.81-17.15-8.19
					c-0.73-0.63,9.1-16.12,16.67-26.91c6.5-9.24,13.06-13.38,14.55-4.36C1040.81,441.83,1040.92,443.7,1040.86,445.97z"/>
				<path class="st5" d="M1011.9,467.41c4.85,1.5,22.32,8.96,23.62,10.17c0.03,0.03-0.03,0.16-0.06,0.15
					c-4.14-1.62-12.81-4.76-23.65-10.11C1011.75,467.59,1011.84,467.39,1011.9,467.41z"/>
			</g>
			<path class="st5" d="M1040.86,445.97c-0.4,15.9-4.74,37.29-5.94,37.33c-0.45,0.02-4.05-1.53-8.42-3.51l14.07-39.46
				C1040.81,441.83,1040.92,443.7,1040.86,445.97z"/>
		</g>
		<g>
			<g>
				<path class="st19" d="M1104.8,739.64c2.17-1.54,44.63-59.94,44.85-63.19c0.09-1.23-8.06-7.91-18.13-15.71
					c-2.17-1.68-4.43-3.41-6.73-5.15c-14.92-11.31-31.02-22.96-31.02-22.96l-28.52,38.98l31.8,21.88l6.98,4.81
					c0,0-6.26,29.63-6.11,33.22C1098.08,735.11,1102.63,741.18,1104.8,739.64z"/>
				<path class="st21" d="M1104.8,739.64c2.17-1.54,44.63-59.94,44.85-63.19c0.1-1.5-11.94-11.05-24.86-20.85l-27.74,37.91
					l6.98,4.81c0,0-6.26,29.63-6.11,33.22C1098.08,735.11,1102.63,741.18,1104.8,739.64z"/>
				<g>
					<path class="st9" d="M1104.8,739.64c2.17-1.54,44.63-59.94,44.85-63.19c0.09-1.23-8.06-7.91-18.13-15.71l-27.49,37.57
						c0,0-6.26,29.63-6.11,33.22C1098.08,735.11,1102.63,741.18,1104.8,739.64z"/>
					<g>
						<g>
							<path class="st5" d="M1103.07,737.1c6.88-9.96,35.56-49.5,43.12-58.83c0.06-0.08,0.12-0.04,0.06,0.04
								c-6.6,10.02-35.61,49.33-43.02,58.9C1103.07,737.42,1102.92,737.31,1103.07,737.1z"/>
							<path class="st5" d="M1098.55,726.25c1.59-2.39,4.35-3.86,6.65-4.12c2.21-0.25,4.84,0.07,6.82,1.61
								c0.06,0.04-0.02,0.15-0.09,0.12c-4.24-2.23-10.14-1.19-13.26,2.48C1098.61,726.41,1098.49,726.33,1098.55,726.25z"/>
							<path class="st5" d="M1102.24,702.82c2.8-3.96,7.48-7.49,12.46-7.6c0.19,0,0.2,0.27,0.05,0.34
								c-4.4,2.21-8.21,4.59-12.07,7.67C1102.4,703.46,1102.04,703.1,1102.24,702.82z"/>
							<path class="st5" d="M1101.22,706.7c2.8-3.96,7.48-7.49,12.46-7.6c0.19,0,0.2,0.27,0.05,0.34c-4.4,2.21-8.21,4.59-12.07,7.67
								C1101.38,707.34,1101.02,706.99,1101.22,706.7z"/>
							<path class="st5" d="M1100.2,710.58c2.8-3.96,7.48-7.49,12.46-7.6c0.19,0,0.2,0.27,0.05,0.34c-4.4,2.21-8.21,4.59-12.07,7.67
								C1100.36,711.22,1100,710.87,1100.2,710.58z"/>
							<path class="st5" d="M1099.18,714.47c2.79-3.96,7.48-7.49,12.46-7.6c0.19,0,0.2,0.27,0.05,0.34
								c-4.4,2.21-8.21,4.59-12.07,7.67C1099.34,715.1,1098.98,714.75,1099.18,714.47z"/>
							<path class="st5" d="M1135.08,674.01c3.21-4.39,10.03,0.59,6.82,4.99C1138.69,683.38,1131.86,678.4,1135.08,674.01z"/>
						</g>
						<path class="st5" d="M1094.68,703.31c4.27-0.13,8.33-2.1,12.28-3.49c0.41-0.14,0.42-0.65,0.2-0.93
							c0.05-0.06,0.06-0.15-0.02-0.2c-3.54-2.24-8.4-3.7-12.61-3.73c-2.6-0.02-6.02,1.31-5.82,4.49
							C1088.9,702.46,1092.19,703.39,1094.68,703.31z M1091.3,701.14c-3.98-3.49,2.09-4.95,4.01-4.86c1.23,0.06,2.48,0.27,3.68,0.49
							c2.53,0.47,4.95,1.29,7.41,2.01c-1.99,0.56-3.91,1.29-5.87,1.92C1098.19,701.46,1093.49,703.06,1091.3,701.14z"/>
						<path class="st5" d="M1114.75,682.96c-2.78-1.55-5.46,0.96-6.56,3.31c-1.79,3.81-2.57,8.83-2.07,12.98
							c0.01,0.1,0.1,0.13,0.17,0.11c0.16,0.32,0.62,0.53,0.93,0.23c2.96-2.97,6.49-5.79,8.44-9.58
							C1116.81,687.8,1117.38,684.43,1114.75,682.96z M1110.78,694.16c-1.42,1.5-2.9,2.92-4.27,4.47c0.41-2.53,0.71-5.07,1.38-7.56
							c0.32-1.19,0.67-2.4,1.15-3.54c0.74-1.77,4.68-6.61,6.12-1.52C1115.95,688.83,1112.47,692.38,1110.78,694.16z"/>
					</g>
				</g>
			</g>
			<g>
				
					<pattern  id="SVGID_00000054236134965754148110000016673480414136018840_" xlink:href="#Nueva_muestra_de_motivo_16" patternTransform="matrix(1.1017 0.0817 -0.0817 1.1017 192.4675 1260.714)">
				</pattern>
				<path style="fill:url(#SVGID_00000054236134965754148110000016673480414136018840_);" d="M1122.93,652.02l-32.7,42.24
					c0,0-29.07-19.28-55.46-43.81c-10.03-9.31-19.68-19.39-27.2-29.45c-7.48-10.01-12.86-20-14.42-29.22
					c-5.14-30.28,47.47-95.17,47.47-95.17h52.89c0,0-21.65,34.22-34.9,59.51v0.01c-5.84,11.15-10.04,20.55-10.04,24.52
					c0,4.18,2.81,9.42,7.32,15.17C1074.66,619.65,1122.93,652.02,1122.93,652.02z"/>
				<path class="st5" d="M1048.58,580.65c0,4.18,2.81,9.42,7.32,15.17l-21.13,54.63c-10.03-9.31-19.68-19.39-27.2-29.45l51.05-64.87
					C1052.78,567.27,1048.58,576.67,1048.58,580.65z"/>
				<g>
					<path class="st5" d="M1083.51,686.54c5.04-6.69,3.51-4.84,8.62-11.47c2.5-3.25,18.97-24.57,21.81-27.21
						c0.06-0.06,0.17,0.03,0.13,0.1c-1.89,3.38-18.71,24.43-21.27,27.64c-5.23,6.54-3.8,4.61-9.1,11.09
						C1083.59,686.8,1083.42,686.66,1083.51,686.54z"/>
					<path class="st5" d="M1110.09,649.06c-20.53-16.08-64.58-53.62-65.68-67.32c-0.86-10.65,35.23-68.95,41.88-81.65
						c0.05-0.09-0.09-0.17-0.14-0.08c-12.92,20.65-43.63,71.35-42.9,82.03c1,14.54,54.13,57.86,66.42,67.44
						C1109.96,649.71,1110.39,649.29,1110.09,649.06z"/>
				</g>
			</g>
			<g>
				<path class="st19" d="M875.39,750.48c2.64,0.88,78.22,0.66,81.1-1.17c1.09-0.69,1.7-11.7,2.06-25.02
					c0.08-2.88,30.74-49.26,30.74-49.26h-51.93l-22.78,40.39l-4.75,8.87c0,0-28.9,13.03-31.84,15.37
					C875.06,742,872.75,749.6,875.39,750.48z"/>
				<path class="st21" d="M875.39,750.48c2.64,0.88,78.22,0.66,81.1-1.17c1.07-0.68,1.63-11.27,2.04-24.24
					c0.02-0.78,3.74-6.75,5.09-9.64h-49.05l-4.75,8.87c0,0-28.9,13.03-31.84,15.37C875.06,742,872.75,749.6,875.39,750.48z"/>
				<g>
					<path class="st9" d="M875.39,750.48c2.64,0.88,78.22,0.66,81.1-1.17c1.09-0.69,1.7-11.7,2.06-25.02h-48.73
						c0,0-28.9,13.03-31.84,15.37C875.06,742,872.75,749.6,875.39,750.48z"/>
					<g>
						<g>
							<path class="st5" d="M876.47,747.45c12.67-0.35,63.79-0.55,76.34,0.06c0.1,0.01,0.1,0.07,0,0.08
								c-12.55,0.62-63.68,0.41-76.34,0.06C876.2,747.65,876.2,747.46,876.47,747.45z"/>
							<path class="st5" d="M882.84,736.93c3-0.13,5.94,1.29,7.59,3.07c1.58,1.71,2.93,4.13,2.85,6.76c0,0.08-0.14,0.08-0.15,0
								c-0.74-4.96-5.26-9.3-10.29-9.67C882.74,737.08,882.74,736.93,882.84,736.93z"/>
							<path class="st5" d="M904.92,725.56c5.07-0.09,10.95,1.69,14.12,5.83c0.12,0.16-0.11,0.33-0.26,0.26
								c-4.59-2.35-8.95-4.1-13.95-5.46C904.48,726.09,904.55,725.57,904.92,725.56z"/>
							<path class="st5" d="M901.01,727.1c5.07-0.09,10.95,1.69,14.12,5.83c0.12,0.16-0.11,0.33-0.26,0.26
								c-4.59-2.35-8.95-4.1-13.95-5.46C900.57,727.63,900.64,727.11,901.01,727.1z"/>
							<path class="st5" d="M897.1,728.64c5.07-0.09,10.95,1.69,14.12,5.83c0.12,0.16-0.11,0.33-0.26,0.25
								c-4.59-2.35-8.95-4.1-13.95-5.46C896.66,729.17,896.73,728.64,897.1,728.64z"/>
							<path class="st5" d="M893.19,730.17c5.07-0.09,10.95,1.69,14.12,5.83c0.12,0.16-0.11,0.33-0.26,0.26
								c-4.59-2.35-8.95-4.1-13.95-5.46C892.75,730.7,892.82,730.18,893.19,730.17z"/>
							<path class="st5" d="M949.55,735.49c5.69,0,5.7,8.84,0,8.84C943.86,744.34,943.85,735.49,949.55,735.49z"/>
						</g>
						<path class="st5" d="M899.82,719.48c2.75,3.52,6.92,5.73,10.54,8.22c0.38,0.26,0.8-0.05,0.91-0.41
							c0.08,0.01,0.17-0.04,0.16-0.15c-0.3-4.37-2.07-9.38-4.65-12.95c-1.59-2.21-4.83-4.28-7.39-2.14
							C896.98,714.07,898.22,717.42,899.82,719.48z M899.58,715.28c0.49-5.52,5.48-1.29,6.58,0.38c0.71,1.07,1.31,2.26,1.86,3.41
							c1.17,2.43,1.97,4.98,2.88,7.51c-1.7-1.33-3.5-2.5-5.25-3.77C903.56,721.3,899.31,718.32,899.58,715.28z"/>
						<path class="st5" d="M929.43,723.85c-0.41-3.31-4.19-4.01-6.85-3.49c-4.32,0.84-9.04,3.29-12.25,6.27
							c-0.08,0.07-0.05,0.16,0.02,0.21c-0.17,0.34-0.07,0.86,0.38,0.92c4.34,0.66,8.9,1.9,13.31,1.21
							C926.61,728.58,929.81,726.98,929.43,723.85z M917.51,727.43c-2.14-0.27-4.26-0.65-6.41-0.84c2.39-1.22,4.72-2.53,7.23-3.51
							c1.2-0.47,2.44-0.92,3.69-1.22c1.95-0.46,8.48-0.13,5.06,4.23C925.2,728.49,920.06,727.75,917.51,727.43z"/>
					</g>
				</g>
			</g>
			<g>
				
					<pattern  id="SVGID_00000124144501328412838250000000411160500947665294_" xlink:href="#Nueva_muestra_de_motivo_9" patternTransform="matrix(1.267 0 0 0.9943 1894.8978 -27.7039)">
				</pattern>
				
					<rect x="1041.25" y="544.24" style="fill:url(#SVGID_00000124144501328412838250000000411160500947665294_);" width="79.2" height="16.41"/>
				
					<pattern  id="SVGID_00000100352038676140382530000013035293957400760205_" xlink:href="#Nueva_muestra_de_motivo_9" patternTransform="matrix(1.267 0 0 1.1667 1894.015 1050.2444)">
				</pattern>
				<polygon style="fill:url(#SVGID_00000100352038676140382530000013035293957400760205_);" points="1062.5,560.51 1060.28,574.5 
					1032.91,747.01 1025.08,747.01 1046.68,574.5 1048.44,560.51 				"/>
				
					<pattern  id="SVGID_00000116192945223090678200000012309276820626371468_" xlink:href="#Nueva_muestra_de_motivo_9" patternTransform="matrix(-1.267 0 0 1.1667 -16448.3887 1050.2444)">
				</pattern>
				<polygon style="fill:url(#SVGID_00000116192945223090678200000012309276820626371468_);" points="1136.63,747.01 
					1128.79,747.01 1101.41,574.5 1099.19,560.51 1113.25,560.51 1115.01,574.5 				"/>
				
					<pattern  id="SVGID_00000045590797401974045130000005541594409150629303_" xlink:href="#Nueva_muestra_de_motivo_9" patternTransform="matrix(-1.267 0 0 1.1667 -16448.3887 1050.2444)">
				</pattern>
				
					<rect x="1036.05" y="692.53" style="fill:url(#SVGID_00000045590797401974045130000005541594409150629303_);" width="87.36" height="4.92"/>
				<polygon class="st5" points="1046.68,573.75 1060.28,573.75 1062.5,560.51 1048.44,560.51 				"/>
				<polygon class="st5" points="1115.01,573.75 1101.41,573.75 1099.19,560.51 1113.25,560.51 				"/>
			</g>
			<g>
				
					<pattern  id="SVGID_00000166654431389316398620000003046188186024918196_" xlink:href="#Nueva_muestra_de_motivo_16" patternTransform="matrix(1.1047 0 0 1.1047 736.0843 680.2089)">
				</pattern>
				<path style="fill:url(#SVGID_00000166654431389316398620000003046188186024918196_);" d="M905.21,710.28h69
					c0,0,90.45-142.74,104.45-155.72c22.96-21.29,30.55-33.89,16.51-60.49l-54.91,2.91c0,0,2.76,20.68,2.2,21.39
					C1020.88,545.67,905.21,710.28,905.21,710.28z"/>
				<g>
					<path class="st5" d="M918.18,701.21c10.99-0.54,52.34-0.57,55.97,0.03c0.08,0.01,0.08,0.15,0,0.16
						c-3.63,0.6-28.76,1.18-55.97,0.03C918.03,701.44,918.03,701.22,918.18,701.21z"/>
					<path class="st5" d="M1038.85,497.61c0.68,5.38,0.88,14.59,4.01,14.59c3.03,0,2.06-11.24,2.03-13.83
						c-0.03-2.35,0.79-2.07,1.01,0.7c0.59,7.5,0.7,14.13-3.31,14.01c-4.08-0.12-4.51-11.77-4.53-14.43
						C1038.04,497.27,1038.63,495.91,1038.85,497.61z"/>
					<path class="st5" d="M1042.67,512.57c0.24,1.04,0.38,2.1,0.48,3.16c0.08,0.82,0.22,1.72-0.02,2.52
						c-0.05,0.16-0.26,0.13-0.32,0.01c-0.41-0.76-0.47-1.72-0.62-2.57c-0.18-0.98-0.38-1.96-0.53-2.95
						C1041.56,512.09,1042.53,511.93,1042.67,512.57z"/>
					<path class="st5" d="M1042.63,517.36c-8.5,12.01-17.69,24.21-26.1,36.29c-4.18,6.01-21.8,28.78-25.15,34.77
						c-0.13,0.23,0.29,0.39,0.43,0.18c3.85-5.88,22.06-28.67,26.26-34.68c8.32-11.9,16.84-23.75,25.08-35.71
						C1043.44,517.78,1042.93,516.94,1042.63,517.36z"/>
					<path class="st5" d="M1091.97,496.71c-0.05-0.13-0.27-0.08-0.22,0.06c2.58,7.22,3.7,14.93,1.93,22.48
						c-1.73,7.41-6.42,13.5-10.81,19.54c-9.26,12.75-18.46,25.54-27.63,38.36c-18.43,25.79-36.66,51.71-54.7,77.77
						c-10.1,14.59-20.16,29.21-30.08,43.93c-0.15,0.23,0.21,0.44,0.37,0.21c36.73-53.44,73.81-106.62,111.91-159.1
						c4.62-6.36,9.68-12.74,11.47-20.57C1095.94,511.86,1094.81,503.83,1091.97,496.71z"/>
				</g>
				<g>
					
						<pattern  id="SVGID_00000026870902942954963360000001114845862716569238_" xlink:href="#Nueva_muestra_de_motivo_10" patternTransform="matrix(-1.1578 -0.0657 0.056 -0.9869 -15218.4277 -13619.332)">
					</pattern>
					<path style="fill:url(#SVGID_00000026870902942954963360000001114845862716569238_);" d="M980.12,607.96
						c-4.66,3.98-2.44,8.07-2.8,10.46c-0.37,2.39-4.23,9.94-1.29,11.23c2.95,1.29,8.29-9.94,11.97-11.6
						c3.68-1.66,11.05,0,13.44-6.08c2.39-6.08-4.23-9.2-5.34-14.08c-1.1-4.88-3.51-6.17-6.49-3.13
						C986.63,597.8,983.75,604.87,980.12,607.96z"/>
					
						<pattern  id="SVGID_00000039843993300884342600000003898986309198434195_" xlink:href="#Nueva_muestra_de_motivo_10" patternTransform="matrix(-1.1578 -0.0657 0.056 -0.9869 -15218.4277 -13619.332)">
					</pattern>
					<path style="fill:url(#SVGID_00000039843993300884342600000003898986309198434195_);" d="M1006.18,602.17
						c-0.58,2.66,4.83,1.25,4.46-1.05C1010.28,598.82,1006.59,600.27,1006.18,602.17z"/>
					
						<pattern  id="SVGID_00000008111167133637420480000005341216628425167541_" xlink:href="#Nueva_muestra_de_motivo_10" patternTransform="matrix(-1.1578 -0.0657 0.056 -0.9869 -15218.4277 -13619.332)">
					</pattern>
					<path style="fill:url(#SVGID_00000008111167133637420480000005341216628425167541_);" d="M1001.96,601.12
						c0.47,1.03,3.21-0.55,2.34-1.98C1003.42,597.71,1001.23,599.51,1001.96,601.12z"/>
					<path class="st4" d="M1052.62,552.44c-6.7,1.7-11.59,7.07-8.83,9.09c2.76,2.03,7.99,0.23,10.8,3.68
						c2.82,3.45,6.37,3.45,7.91-3.18C1064.04,555.41,1058.88,550.85,1052.62,552.44z"/>
					<path class="st4" d="M1041.94,568.53c-1.08,4.31,7.24,2.94,6.51,0.35C1047.72,566.28,1042.68,565.58,1041.94,568.53z"/>
				</g>
			</g>
		</g>
		<g>
			<g>
				
					<pattern  id="SVGID_00000085235951580233014610000007511013490434138265_" xlink:href="#Nueva_muestra_de_motivo_10" patternTransform="matrix(1.1047 0 0 1.1047 781.0906 674.4672)">
				</pattern>
				<path style="fill:url(#SVGID_00000085235951580233014610000007511013490434138265_);" d="M1097.86,498.47
					c-1.27,1.27-14.46,13.17-31.54,14.7c-0.84,0.08-1.67,0.14-2.48,0.2c-15.68,1.11-25.85-0.99-28.45-2.69
					c-2.74-1.78-3.43-48.6-3.66-56.74c-0.23-8.15,3.32-18.24,5.05-18.97c1.73-0.74,13.57-4.71,17.65-3.48
					c1.57,0.47,3.11,1.06,4.59,1.75c8.62,3.98,15.68,11.26,20.16,18.56C1084.44,460.35,1099.12,497.2,1097.86,498.47z"/>
				<path class="st5" d="M1034.5,440.18c-0.04-0.23,0.27-0.32,0.35-0.1c0.92,2.78,1.58,6.02,4.39,7.54c3.1,1.69,6.59-0.75,8.86-2.79
					c3.54-3.19,5.64-7.54,7.07-12.01c0.05-0.17,0.3-0.1,0.26,0.07c-1.43,5.83-4.68,11.75-10.07,14.78
					C1039.28,451.09,1035.43,445.93,1034.5,440.18z"/>
				<path class="st5" d="M1097.86,498.47c-1.27,1.27-14.46,13.17-31.54,14.7c-0.84,0.08-1.67,0.14-2.48,0.2l-4.82-80.13
					c8.62,3.98,15.68,11.26,20.16,18.56C1084.44,460.35,1099.12,497.2,1097.86,498.47z"/>
			</g>
			
				<pattern  id="SVGID_00000088110139237612774550000001079899768601763735_" xlink:href="#Nueva_muestra_de_motivo_16" patternTransform="matrix(1.1047 0 0 1.1047 736.0843 680.2089)">
			</pattern>
			<path style="fill:url(#SVGID_00000088110139237612774550000001079899768601763735_);" d="M1034.08,510.35
				c-0.51-1.04-2.77-52.31-2.23-59.96c0.53-7.65,0.84-12.8,1.26-13.81c0.42-1.01,3.26-3.08,3.91-2.46
				c0.64,0.62-0.49,20.04,0.25,22.07c0.74,2.03,13.9-1.01,14.82-1.66c0.92-0.64-0.31-22.58,0.49-23.52c0.8-0.96,2.79-1.14,3.43-0.37
				c1.06,1.29,3.18,25.82,4.65,29.97c1.47,4.14,11.78,13.55,17.58,14.49c5.8,0.93,12.05,0.38,13.53,0
				c1.49-0.38,9.91,26.24,10.48,38.58C1102.81,526.02,1037.58,517.47,1034.08,510.35z"/>
			<path class="st5" d="M1035.28,464.99c0.12,2.74,0.19,13.02,1.2,14.2c1.25,1.45,8.37,2.28,10.17,2.27
				c2.01-0.01,9.89-3.45,11.17-5.42c0.75-1.15-0.57-12.31-1.98-13.61c-0.79-0.73-1.77-0.34-2.93-0.23
				c-3.88,0.39-16.72,1.51-17.6,2.66c-0.2,0.26,0.24,0.5,0.43,0.25c0.89-1.17,14.56-2.17,17.75-2.47c1.1-0.1,1.38-0.27,2,0.34
				c0.67,0.65,2.99,11.24,1.53,13c-1.66,2.01-7.55,4.11-9.98,4.7c-1.64,0.4-9.44-1.54-9.82-1.89c-0.32-0.3-0.5-0.77-0.69-1.65
				c-0.01-0.06-0.03-0.12-0.04-0.18c-0.26-1.35-0.62-9.39-0.73-11.97C1035.77,464.67,1035.27,464.67,1035.28,464.99z"/>
			<g>
				<path class="st9" d="M1065.67,479.4c-1.7-1.87-6.77-3.36-9.16-0.33c-2.39,3.03,2,6.18,1.68,7.61c-0.32,1.43-3.39,1.56-3.71,3.38
					c-0.32,1.82,0.88,2.82,1.62,3.85c0.75,1.03,0.47,5.38,4.43,6.16c3.97,0.77,5.22-4.37,7.17-5.76c1.95-1.4,6.6-2.67,6.11-5.94
					c-0.49-3.26-6.24-1.94-6.97-3.47C1066.14,483.36,1067.57,481.48,1065.67,479.4z"/>
				<path class="st9" d="M1054.58,486.09c-0.41-1.84-3.22-0.98-2.86,0.84C1052.08,488.74,1054.76,486.92,1054.58,486.09z"/>
				<path class="st9" d="M1053.62,481.11c-0.88,0.25-0.39,1.83,0.62,1.63C1055.25,482.53,1054.3,480.91,1053.62,481.11z"/>
			</g>
		</g>
		<g>
			<g>
				<g>
					<path class="st19" d="M1052.56,431.95c-1.75,5.44-8.22,15.1-11.56,12.63c-1.49-1.1-3.45-5.53-5.15-10.09
						c-2.11-5.63-3.83-11.48-3.83-11.48l11.04-5.02l3.34-1.51c0,0,0.51-0.42,0.98-0.7c0.4-0.23,0.76-0.39,0.81-0.13
						c0.52,2.71,1.29,5.61,2.04,8.2C1051.49,428.13,1052.68,431.59,1052.56,431.95z"/>
				</g>
				<path class="st5" d="M1047.38,415.79c-0.33,13.96-7.81,17.71-11.52,18.7c-2.11-5.63-3.83-11.48-3.83-11.48l11.04-5.02l3.34-1.51
					C1046.39,416.49,1046.9,416.07,1047.38,415.79z"/>
			</g>
			<g>
				<g>
					<path class="st19" d="M1048.81,396.44c2.35,5.95,0.54,23.82-3.48,28.1c-5.83,6.2-16.08,7.57-21.52,0.4
						c-5.28-6.95-2.51-30.2,2.05-34.16C1032.57,384.94,1045.34,387.65,1048.81,396.44z"/>
				</g>
				<path class="st33" d="M1045.75,424.33C1045.76,424.33,1045.76,424.32,1045.75,424.33"/>
				<g>
					<g>
						<path class="st5" d="M1033.98,409.32c0.01-0.04,0.09,0.07,0.08,0.12c-0.15,1.2-0.13,2.6,0.92,3.11
							c0.03,0.02,0.02,0.08-0.02,0.07C1033.66,412.29,1033.64,410.43,1033.98,409.32z"/>
						<path class="st5" d="M1035.18,408.16c1.95,0.04,1.73,3.94-0.08,3.9C1033.32,412.03,1033.54,408.13,1035.18,408.16z"/>
					</g>
					<g>
						<path class="st5" d="M1026.58,408.73c-0.01-0.05-0.1,0.05-0.1,0.1c-0.03,1.21-0.27,2.59-1.38,2.93
							c-0.03,0.01-0.03,0.07,0.01,0.07C1026.45,411.72,1026.75,409.88,1026.58,408.73z"/>
						<path class="st5" d="M1025.58,407.41c-1.93-0.26-2.31,3.63-0.52,3.87C1026.82,411.51,1027.2,407.62,1025.58,407.41z"/>
					</g>
					<path class="st5" d="M1036.82,406.47c-0.52-0.16-0.98-0.4-1.48-0.62c-0.57-0.24-1.04-0.38-1.39-0.92
						c-0.19-0.29-0.07-0.78,0.19-0.99c0.61-0.48,1.38-0.36,2.07-0.09c0.75,0.29,1.26,0.7,1.66,1.4
						C1038.26,405.92,1037.51,406.68,1036.82,406.47z"/>
					<path class="st5" d="M1024.18,405.36c0.55-0.06,1.04-0.2,1.57-0.31c0.6-0.13,1.09-0.17,1.54-0.63
						c0.24-0.25,0.23-0.75,0.01-1.01c-0.51-0.6-1.28-0.62-2.01-0.5c-0.79,0.13-1.37,0.44-1.9,1.04
						C1022.88,404.54,1023.46,405.43,1024.18,405.36z"/>
					<path class="st5" d="M1032.99,419.89c-0.31,0.27-0.62,0.64-1.06,0.65c-0.42,0.01-0.9-0.21-1.28-0.38
						c-0.04-0.02-0.08,0.02-0.06,0.06c0.29,0.48,0.93,0.81,1.5,0.74c0.55-0.06,0.85-0.52,1.01-1.01
						C1033.13,419.88,1033.03,419.85,1032.99,419.89z"/>
					<g>
						<g>
							<path class="st5" d="M1033.33,416.5c-0.74,1.01-1.76,1.53-2.85,1.67c-0.49,0.07-0.99,0.06-1.48-0.02
								c-0.1-0.01-0.19-0.02-0.28-0.05c-0.09-0.02-0.17-0.03-0.26-0.06c-0.14-0.03-0.21-0.15-0.23-0.28l0-0.01
								c0-0.04,0.01-0.08,0.02-0.12c0,0,0,0,0-0.01l0.01-0.11c0.03-0.93,0.2-2.34,0.2-2.34c-0.35,0.15-2.13,0.83-2.07,0.35
								c0.47-4.01,0.99-8.47,2.31-12.36c0.04-0.13,0.24-0.09,0.22,0.04c-0.3,3.87-1.28,7.66-1.64,11.55
								c0.57-0.18,1.49-0.52,1.97-0.48c0.13,0.05-0.38,2.72-0.36,3.14c0,0,0,0.02,0.01,0.04c1.55,0.29,2.76-0.12,4.33-1.08
								C1033.32,416.32,1033.41,416.41,1033.33,416.5z"/>
						</g>
					</g>
					<g>
						<path class="st5" d="M1029.63,417.92c0,0,0.85,1.1,1.99,1.48c0.42,0.14,0.87,0.19,1.34,0.06c0.96-0.27,0.97-1.16,0.78-1.91
							c-0.16-0.62-0.46-1.15-0.46-1.15S1031.89,417.74,1029.63,417.92z"/>
						<path class="st34" d="M1031.61,419.4c0.42,0.14,0.87,0.19,1.34,0.06c0.96-0.27,0.97-1.16,0.78-1.91
							C1032.69,417.67,1031.68,418.39,1031.61,419.4z"/>
					</g>
				</g>
				<path class="st5" d="M1023.7,398.28c6.01,4.13,14.24-2.1,14.24-2.1c1.93,4.71,6.63,4.15,6.63,4.15s1.17,10.18,3.86,10.17
					c4.09-0.02,5.37-13.9,4.08-16.63c-1.29-2.73-4.76-3.43-4.76-3.43s-0.25-2.12-2.78-4.05c-2.79-2.14-12.43,0.73-12.43,0.73
					s-0.66-1.8-2.47-3.33c-1.15-0.97-2.67-0.78-3.64,0.33c0.47,0.67,0.82,1.52,0.98,2.51c0.48,2.98-1.96,2.98-1.93,0.27
					c0.01-1.2,0.39-2.15,0.95-2.78c-1.2-1.77-3.16-2.35-4.35-1.4C1019.93,384.42,1018.7,394.85,1023.7,398.28z"/>
				<g>
					<path class="st19" d="M1046.44,412.25c0,0,3.65-5.94,6.32-4.68c2.67,1.27,0.17,9.72-2.8,11.03c-2.97,1.31-4.24-1.41-4.24-1.41
						L1046.44,412.25z"/>
					<path class="st5" d="M1051.98,409.98c0.05-0.01,0.06,0.06,0.02,0.08c-2.08,0.99-3.08,3.03-3.75,5.13
						c0.59-0.83,1.42-1.31,2.53-0.62c0.06,0.04,0.01,0.13-0.05,0.12c-0.88-0.13-1.5,0.05-2.05,0.79c-0.39,0.52-0.64,1.16-0.9,1.75
						c-0.09,0.2-0.44,0.12-0.38-0.11c0-0.02,0.01-0.03,0.01-0.05C1047.2,414.35,1049.08,410.43,1051.98,409.98z"/>
				</g>
			</g>
		</g>
		<g>
			<path class="st19" d="M1065.79,434.89c19.54,16.54,41.36,47.07,36.42,64.72c-3.76,13.42-39.14,26.73-47.17,30.48
				c-3.5,1.64-15.75-20.99-14.14-24.79c1.62-3.8,31.88-18.01,33.89-20.36c2.01-2.34-3.89-16.88-14.69-39.78
				C1053.7,431.58,1060.97,430.82,1065.79,434.89z"/>
			<g>
				<g>
					<path class="st19" d="M1055.71,529.79c-10.49,4.78-30.73,3.09-33.36,2.02c-2.24-0.91-2.89-2.35-2.89-2.35
						c-4.05-1.55-4.97-3.95-4.97-3.95s-5.21-0.41-5.49-3.6c-0.32-3.58,7.08-2.26,11.56-4.09c1.27-0.52,4.31-2.05,6.51-3.29h0.01
						c0.04-0.02,0.09-0.06,0.13-0.08c1.15-0.66,2.05-1.22,2.29-1.49c0.01-0.01,0.02-0.02,0.03-0.03
						c5.07-3.45,12.43-8.94,15.04-10.66L1055.71,529.79z"/>
					<path class="st5" d="M1034.34,521.11c-3.05,1.14-6.02,2.34-9.21,3.07c-3.5,0.79-7,0.97-10.56,1.24c-0.11,0.01-0.11,0.16,0,0.17
						c6.52,0.54,14.13-1.11,19.88-4.21C1034.59,521.29,1034.5,521.05,1034.34,521.11z"/>
					<path class="st5" d="M1039.07,526.33c-3.03,0.95-9.72,3.2-19.61,3.02c-0.03,0-0.04,0.05-0.01,0.06
						c6.4,0.97,13.75-0.35,19.7-2.77C1039.34,526.57,1039.27,526.27,1039.07,526.33z"/>
				</g>
				<g>
					<path class="st9" d="M1026.08,502.95c-18.86-4.13-71.91,2.45-71.31,15.19c0.71,15.18,82.89,9.18,82.25-1.08
						c-0.35-5.7-19.3-3.64-19.46-6.97C1017.44,507.53,1032.75,504.41,1026.08,502.95z"/>
					<path class="st8" d="M1010.85,516.37c-1.12,0.29-2.21,0.8-2.92,1.67c-0.84,1.05-0.68,2.41,0.53,3.08
						c2.46,1.36,8.64,0.69,9.07-2.85C1017.94,515.06,1013.64,515.46,1010.85,516.37z"/>
					
						<pattern  id="SVGID_00000137822963038959182070000009339864036616353467_" xlink:href="#Nueva_muestra_de_motivo_10" patternTransform="matrix(-1.1578 -0.0657 0.056 -0.9869 -15218.4277 -13619.332)">
					</pattern>
					<path style="fill:url(#SVGID_00000137822963038959182070000009339864036616353467_);" d="M996.53,521.86
						c0.1-0.05,0.22-0.1,0.33-0.16c0.38-0.16,0.73-0.35,1.03-0.59c0.34-0.28,0.57-0.59,0.71-0.93c0.13-0.24,0.19-0.5,0.15-0.75
						c-0.02-0.64-0.42-1.25-1.27-1.63c-1.08-0.48-2.32-0.28-3.47-0.39c-1.69-0.15-2.94-1.08-4.68-0.82
						c-1.92,0.28-4.11,1.45-4.39,3.22C984.18,524.53,994,522.96,996.53,521.86z"/>
					
						<pattern  id="SVGID_00000116212911938515445560000008786720241185482883_" xlink:href="#Nueva_muestra_de_motivo_9" patternTransform="matrix(1.1047 0 0 1.1047 760.4301 684.5992)">
					</pattern>
					<path style="fill:url(#SVGID_00000116212911938515445560000008786720241185482883_);" d="M1009.2,508.17
						c-0.54,1.77-2.43,1.88-3.99,1.92c-1.56,0.06-3.12,0.11-4.67,0.13c-0.92,0.01-2.12,0.18-2.93-0.43
						c-0.06-0.04-0.09-0.09-0.14-0.14c-0.52-0.25-0.86-0.74-0.78-1.54c0.14-1.38,1.52-1.84,2.79-2.19c0.44-0.17,0.89-0.3,1.37-0.4
						c2.07-0.71,4.37-1.89,6.55-0.91C1008.73,505.24,1009.65,506.7,1009.2,508.17z"/>
					<path class="st4" d="M989.04,507.15c2.04,2.2-1.38,4.26-3.25,4.58c-1.71,0.29-7.18,0.96-7.1-1.94
						c0.03-1.75,1.86-2.44,3.63-2.62C984.58,506.24,987.63,505.64,989.04,507.15z"/>
					
						<pattern  id="SVGID_00000057135858093220940980000005990181685075410320_" xlink:href="#Nueva_muestra_de_motivo_16" patternTransform="matrix(-1.1047 0 0 1.1047 -15248.4023 677.4781)">
					</pattern>
					<path style="fill:url(#SVGID_00000057135858093220940980000005990181685075410320_);" d="M964.12,514.48
						c-2.07,2.75,1.14,5.45,3.72,5.77c1.91,0.23,4.18,0.01,6.09-0.24c1.28-0.18,2.62-0.77,2.84-2.2c0.41-2.78-2.38-3.68-4.92-3.91
						C969.09,512.86,965.76,512.28,964.12,514.48z"/>
				</g>
				<path class="st19" d="M1029.52,512.92c1.02-1.17,0.41-1.71-2.3-1.19c-2.74,0.52-12.98,4.87-14.2,1.16
					c-1.23-3.72,13.37-9.64,17.94-10.16c4.57-0.53,13.59-0.46,13.59-0.46C1041.95,503.98,1034.59,509.47,1029.52,512.92z"/>
			</g>
			
				<pattern  id="SVGID_00000022549725409276820510000012011447582140779905_" xlink:href="#Nueva_muestra_de_motivo_10" patternTransform="matrix(1.1047 0 0 1.1047 781.0906 674.4672)">
			</pattern>
			<path style="fill:url(#SVGID_00000022549725409276820510000012011447582140779905_);" d="M1069.11,473.31
				c1.2,0.87,23.57-9.21,24.3-10.49c0.74-1.29-14.78-19.79-25.55-27.53c-10.77-7.73-12.41-1.85-9.7,9.29
				C1061.38,457.8,1066.49,471.43,1069.11,473.31z"/>
			<path class="st5" d="M1067.32,469.24c4.41-2.52,21.8-10.16,23.57-10.28c0.04,0,0.1,0.13,0.06,0.15
				c-4.01,1.91-12.23,6.09-23.55,10.34C1067.35,469.48,1067.26,469.28,1067.32,469.24z"/>
		</g>
	</g>
</g>
</svg>
